<svg id="Layer_1" data-name="Layer 1" xmlns="http://www.w3.org/2000/svg" viewBox="0 0 83.4 15.4"><defs><style>.cls-1{fill:#f2f7ee;}</style></defs><title>provotum-logotype</title><path class="cls-1" d="M3.5,1.81H7.72v.93H4.81V13.55H7.72v.93H3.5Z"/><path class="cls-1" d="M9.92,3.42h3.16c2.11,0,3.67.74,3.67,3s-1.59,3.12-3.67,3.12H11.63v3.54H9.92Zm3,4.73c1.43,0,2.12-.58,2.12-1.76s-.72-1.6-2.12-1.6H11.63V8.15Z"/><path class="cls-1" d="M18.1,3.42h3.22c2,0,3.55.71,3.55,2.86s-1.55,3-3.55,3H19.83v3.76H18.1Zm3,4.5c1.31,0,2-.55,2-1.64s-.72-1.49-2-1.49H19.83V7.92Zm1.09-.11,3,5.24H23.32L21,8.83Z"/><path class="cls-1" d="M25.75,8.19c0-3.16,1.55-4.94,3.78-4.94S33.32,5,33.32,8.19s-1.55,5-3.79,5S25.75,11.42,25.75,8.19Zm5.81,0c0-2.2-.8-3.45-2-3.45s-2,1.25-2,3.45.8,3.55,2,3.55S31.56,10.46,31.56,8.19Z"/><path class="cls-1" d="M33.78,3.42H35.6l1.34,4.84c.32,1.09.53,2,.85,3.13h.06c.32-1.09.55-2,.85-3.13L40,3.42h1.76l-3,9.63h-2Z"/><path class="cls-1" d="M42.24,8.19C42.24,5,43.79,3.25,46,3.25S49.82,5,49.82,8.19s-1.56,5-3.79,5S42.24,11.42,42.24,8.19Zm5.81,0c0-2.2-.8-3.45-2-3.45S44,6,44,8.19s.8,3.55,2,3.55S48.05,10.46,48.05,8.19Z"/><path class="cls-1" d="M53.42,4.86h-3V3.42h7.78V4.86h-3v8.19H53.42Z"/><path class="cls-1" d="M59.15,9.38v-6h1.73V9.5c0,1.56.64,2.24,1.66,2.24s1.7-.68,1.7-2.24V3.42h1.65v6c0,2.63-1.24,3.85-3.35,3.85S59.15,12,59.15,9.38Z"/><path class="cls-1" d="M67.3,3.42h1.9l1.15,3.76.39,1.44h.06l.39-1.44,1.15-3.76h1.9v9.63H72.72V9.17c0-1,.17-3,.25-3.95h0l-.64,2.24-1.06,3h-1l-1.06-3-.62-2.24h0c.1.93.25,2.93.25,4v3.88H67.3Z"/><path class="cls-1" d="M76.09,13.55H79V2.74h-2.9V1.81h4.22V14.48H76.09Z"/></svg>